<svg width="40" height="40" viewBox="0 0 40 40" fill="none" xmlns="http://www.w3.org/2000/svg">
<rect width="40" height="40" rx="8" fill="#090909"/>
<path d="M16.8616 22.5769C16.8616 22.2186 16.8539 21.6499 17.016 21.1237C17.2023 20.519 17.612 19.9554 18.369 19.6451C18.6457 19.5317 18.9183 19.4935 19.1661 19.4767C19.4045 19.4606 19.6902 19.4615 20.001 19.4615C20.3118 19.4615 20.5975 19.4606 20.8359 19.4767C21.0835 19.4935 21.3555 19.5319 21.632 19.6451L21.634 19.6461C22.3898 19.9572 22.7996 20.5191 22.986 21.1237C23.0936 21.4727 23.1243 21.8404 23.1342 22.153L23.4469 21.8427C23.8556 21.4372 24.518 21.4372 24.9267 21.8427C25.3353 22.2482 25.3353 22.9056 24.9267 23.3111L23.1404 25.0838V27.685L25.5398 25.3039C25.9485 24.8986 26.611 24.8985 27.0196 25.3039C27.4282 25.7094 27.428 26.3668 27.0196 26.7723L23.1434 30.6179C23.1456 31.0541 23.1517 31.3481 23.1823 31.5732C23.2003 31.7066 23.2219 31.7732 23.2344 31.8034C23.2372 31.8101 23.2391 31.8149 23.2405 31.8176L23.2426 31.8217L23.2466 31.8237C23.2494 31.8251 23.2542 31.827 23.2609 31.8298C23.2914 31.8422 23.3586 31.8636 23.4929 31.8815C23.7868 31.9207 24.1973 31.9231 24.8848 31.9231H25.2425C27.7552 31.9231 29.5245 31.9207 30.7905 31.7405C32.0531 31.5608 32.5085 31.2423 32.7342 30.8745C32.952 30.5193 33.0237 30.0091 32.5809 28.8797C32.1335 27.7388 31.2808 26.2617 30.0588 24.1539C30.0532 24.1443 30.0487 24.1342 30.0435 24.1245L24.8173 15.1099V15.1089C23.5348 12.8941 22.6301 11.3387 21.817 10.3223C21.012 9.31603 20.4825 9.07695 20.001 9.07692C19.5204 9.07692 18.9913 9.31575 18.1861 10.3223C17.5761 11.0847 16.9149 12.1509 16.0809 13.5705L15.1847 15.1099L9.94117 24.1539C8.71896 26.262 7.86659 27.7389 7.41906 28.8797C6.97623 30.0086 7.04737 30.5186 7.26577 30.8745L7.36183 31.0104C7.61817 31.3204 8.10671 31.5833 9.21152 31.7405C10.4777 31.9207 12.2461 31.9231 14.7585 31.9231H15.1172C15.8047 31.9231 16.2152 31.9207 16.5091 31.8815C16.6435 31.8635 16.7107 31.8422 16.7411 31.8298C16.7479 31.827 16.7526 31.8251 16.7554 31.8237L16.7595 31.8217L16.7615 31.8176C16.7629 31.8149 16.7649 31.8101 16.7676 31.8034C16.7801 31.7732 16.8017 31.7065 16.8198 31.5732C16.8593 31.2816 16.8616 30.8742 16.8616 30.192V27.8524L13.6804 24.6954C13.2717 24.2899 13.2717 23.6325 13.6804 23.227C14.0891 22.8218 14.7516 22.8215 15.1601 23.227L16.8616 24.9155V22.5769ZM18.9546 30.192C18.9546 30.8154 18.9569 31.3878 18.8943 31.85C18.8275 32.3424 18.6703 32.8623 18.2392 33.2901C17.8081 33.7179 17.2842 33.8739 16.7881 33.9402C16.3222 34.0023 15.7455 34 15.1172 34H14.7585C12.3141 34 10.3644 34.0026 8.91414 33.7961C7.55128 33.6022 6.36045 33.1898 5.62047 32.1685L5.47842 31.9555C4.74675 30.7635 4.94464 29.4609 5.46821 28.1262C5.98724 26.8031 6.94125 25.1641 8.12725 23.1185L13.3708 14.0735C14.6183 11.9202 15.6127 10.1991 16.5469 9.03129C17.4891 7.85354 18.5562 7 20.001 7C21.4463 7.00003 22.5137 7.85325 23.4561 9.03129C24.3904 10.1991 25.3835 11.9205 26.6302 14.0735H26.6313L31.8748 23.1185C31.878 23.1241 31.8808 23.13 31.884 23.1357C33.0653 25.1732 34.0144 26.8067 34.5318 28.1262C35.055 29.4608 35.2532 30.7632 34.5226 31.9545C33.7995 33.1332 32.5414 33.5892 31.0879 33.7961C29.6377 34.0026 27.6871 34 25.2425 34H24.8848C24.2566 34 23.6798 34.0023 23.2139 33.9402C22.7178 33.8739 22.1939 33.7179 21.7628 33.2901C21.3317 32.8623 21.1745 32.3424 21.1077 31.85C21.0451 31.3878 21.0475 30.8154 21.0475 30.192V22.5769C21.0475 22.1461 21.0378 21.9052 20.9841 21.7311C20.9634 21.6641 20.9445 21.6375 20.9361 21.6277C20.9302 21.621 20.9069 21.5957 20.8318 21.5648V21.5638C20.8157 21.5603 20.7747 21.5551 20.6939 21.5496C20.543 21.5394 20.3403 21.5385 20.001 21.5385C19.6616 21.5385 19.459 21.5394 19.3081 21.5496C19.1674 21.5591 19.1484 21.5729 19.1681 21.5648C19.0937 21.5954 19.0715 21.6213 19.0659 21.6277C19.0576 21.6374 19.0376 21.6639 19.0169 21.7311C18.9633 21.9054 18.9546 22.1466 18.9546 22.5769V30.192Z" fill="white"/>
</svg>
